<?xml version="1.0" encoding="utf-8"?>
<!-- Generator: Adobe Illustrator 25.3.1, SVG Export Plug-In . SVG Version: 6.00 Build 0)  -->
<svg version="1.1" id="圖層_1" xmlns="http://www.w3.org/2000/svg" xmlns:xlink="http://www.w3.org/1999/xlink" x="0px" y="0px"
	 viewBox="0 0 20 20" style="enable-background:new 0 0 20 20;" xml:space="preserve">
<style type="text/css">
	.st0{fill:#333333;stroke:#333333;stroke-width:0.25;stroke-miterlimit:10;}
</style>
<g>
	<g>
		<g>
			<path class="st0" d="M7,10.4c-0.2,0-0.4-0.2-0.4-0.4L6.2,6.3c0-0.2,0.2-0.4,0.4-0.5C6.8,5.8,7,6,7.1,6.2l0.3,3.7
				C7.5,10.1,7.3,10.4,7,10.4L7,10.4z"/>
		</g>
		<g>
			<path class="st0" d="M13.7,10.4L13.7,10.4c-0.3,0-0.5-0.2-0.4-0.5l0.3-3.7c0-0.2,0.2-0.4,0.5-0.4c0.2,0,0.4,0.2,0.4,0.5L14.2,10
				C14.1,10.2,13.9,10.4,13.7,10.4z"/>
		</g>
		<g>
			<path class="st0" d="M10.3,10.4c-0.2,0-0.4-0.2-0.4-0.4V6.3c0-0.2,0.2-0.4,0.4-0.4s0.4,0.2,0.4,0.4V10
				C10.8,10.2,10.6,10.4,10.3,10.4z"/>
		</g>
	</g>
	<g>
		<path class="st0" d="M6,18.4c-0.9,0-1.6-0.7-1.6-1.6c0-0.9,0.6-1.7,1.6-1.7s1.6,0.7,1.6,1.6S6.9,18.4,6,18.4z M6,15.9
			c-0.4,0-0.8,0.3-0.8,0.8c0,0.4,0.3,0.8,0.8,0.8c0.4,0,0.8-0.3,0.8-0.8C6.8,16.3,6.4,15.9,6,15.9z"/>
	</g>
	<g>
		<path class="st0" d="M14.4,18.4c-0.9,0-1.6-0.7-1.6-1.6c0-0.9,0.7-1.6,1.6-1.6s1.6,0.7,1.6,1.6C16.1,17.6,15.3,18.4,14.4,18.4z
			 M14.4,15.9c-0.4,0-0.8,0.3-0.8,0.8c0,0.4,0.3,0.8,0.8,0.8s0.8-0.3,0.8-0.8C15.1,16.3,14.8,15.9,14.4,15.9z"/>
	</g>
	<g>
		<path class="st0" d="M16,14.5H6.2c-1,0-2-0.7-2.2-1.8L2,2.9C1.9,2.8,1.7,2.6,1.5,2.6H0.2v-1h1.3c0.6,0,1.1,0.4,1.3,1l2.1,9.8
			c0.1,0.6,0.6,1,1.2,1H16V14.5z"/>
	</g>
	<g>
		<path class="st0" d="M15.3,12.4H5.8v-0.9h9.6c0.2,0,0.4-0.1,0.4-0.3l1.1-6.3c0-0.2,0-0.3-0.1-0.3c0-0.1-0.2-0.1-0.3-0.1H4v-1h12.5
			c0.4,0,0.7,0.2,1,0.5c0.2,0.3,0.3,0.7,0.3,1l-1.1,6.3C16.6,12,16.1,12.4,15.3,12.4z"/>
	</g>
</g>
</svg>
