<?xml version="1.0" encoding="utf-8"?>
<!-- Generator: Adobe Illustrator 27.4.0, SVG Export Plug-In . SVG Version: 6.00 Build 0)  -->
<svg version="1.1" id="圖層_1" xmlns="http://www.w3.org/2000/svg" xmlns:xlink="http://www.w3.org/1999/xlink" x="0px" y="0px"
	 viewBox="0 0 20 20" style="enable-background:new 0 0 20 20;" xml:space="preserve">
<style type="text/css">
	.st0{fill:#FFFFFF;}
	.st1{fill:none;stroke:#FFFFFF;stroke-miterlimit:10;}
</style>
<path class="st0" d="M3.7,1.4C2.8,1.4,2,2.2,2,3.2v12.6c0,0.9,0.8,1.7,1.7,1.7h12.6c0.9,0,1.7-0.8,1.7-1.7V3.2
	c-0.1-0.9-0.8-1.7-1.7-1.7h-2.1H3.7V1.4z M16.9,15.6c0,0.3-0.2,0.6-0.6,0.6H3.7c-0.3,0-0.6-0.2-0.6-0.6V3.2c0-0.3,0.2-0.6,0.6-0.6
	h12.6c0.3,0,0.6,0.2,0.6,0.6V15.6z"/>
<line class="st1" x1="8.1" y1="6.8" x2="14.9" y2="6.8"/>
<line class="st1" x1="8.1" y1="12.9" x2="14.9" y2="12.9"/>
<line class="st1" x1="8.1" y1="9.8" x2="14.9" y2="9.8"/>
<circle class="st0" cx="6.1" cy="6.8" r="1"/>
<circle class="st0" cx="6.1" cy="9.8" r="1"/>
<circle class="st0" cx="6.1" cy="12.9" r="1"/>
</svg>
