<?xml version="1.0" encoding="utf-8"?>
<!-- Generator: Adobe Illustrator 23.0.6, SVG Export Plug-In . SVG Version: 6.00 Build 0)  -->
<svg version="1.1" id="圖層_1" xmlns="http://www.w3.org/2000/svg" xmlns:xlink="http://www.w3.org/1999/xlink" x="0px" y="0px"
	 viewBox="0 0 119 31" style="enable-background:new 0 0 119 31;" xml:space="preserve">
<style type="text/css">
	.st0{fill:#231815;}
</style>
<g>
	<g>
		<path class="st0" d="M50.11,10.41c0.28,0.1,0.52,0.25,0.72,0.46c0.2,0.21,0.37,0.46,0.51,0.75c0.14,0.3,0.28,0.64,0.4,1.03h0.16
			v-2.61h-3.59v0.21h0.79C49.5,10.26,49.84,10.31,50.11,10.41z"/>
		<path class="st0" d="M49.25,15.82c0.13,0.21,0.23,0.45,0.3,0.72c0.07,0.27,0.14,0.55,0.21,0.84h0.16V12.7h-0.16
			c-0.11,0.45-0.21,0.82-0.32,1.11c-0.11,0.29-0.24,0.51-0.4,0.68c-0.16,0.17-0.35,0.28-0.57,0.34c-0.22,0.06-0.49,0.09-0.8,0.09
			h-0.93v-4.87h-3.02v0.21h1.59v10.31h-1.59v0.21h3.02v-5.65h1.16c0.34,0,0.62,0.06,0.84,0.19C48.95,15.44,49.12,15.61,49.25,15.82z
			"/>
		<path class="st0" d="M52.09,18.35c-0.11,0.35-0.27,0.69-0.49,1.02c-0.22,0.33-0.5,0.61-0.85,0.84c-0.35,0.24-0.79,0.35-1.31,0.35
			h-1.12v0.21h4.13v-3.3h-0.16C52.26,17.71,52.19,18,52.09,18.35z"/>
		<path class="st0" d="M40.34,10.41c0.28,0.1,0.52,0.25,0.72,0.46c0.2,0.21,0.37,0.46,0.51,0.75c0.14,0.3,0.28,0.64,0.4,1.03h0.16
			v-2.61h-3.59v0.21h0.79C39.73,10.26,40.07,10.31,40.34,10.41z"/>
		<path class="st0" d="M39.48,15.82c0.13,0.21,0.23,0.45,0.3,0.72c0.07,0.27,0.14,0.55,0.21,0.84h0.16V12.7h-0.16
			c-0.11,0.45-0.21,0.82-0.32,1.11c-0.11,0.29-0.24,0.51-0.4,0.68c-0.16,0.17-0.35,0.28-0.56,0.34c-0.22,0.06-0.49,0.09-0.8,0.09
			h-0.93v-4.87h-3.02h-3.32v0.21h1.56v4.56h0.21v-4.56h1.56v0h1.59v10.31h-1.59v0.21h3.02v-5.65h1.16c0.34,0,0.62,0.06,0.84,0.19
			C39.18,15.44,39.35,15.61,39.48,15.82z"/>
		<path class="st0" d="M42.32,18.35c-0.11,0.35-0.27,0.69-0.49,1.02c-0.22,0.33-0.5,0.61-0.85,0.84c-0.35,0.24-0.78,0.35-1.31,0.35
			h-1.12v0.21h4.13v-3.3h-0.16C42.49,17.71,42.42,18,42.32,18.35z"/>
		<path class="st0" d="M28.17,20.41c-0.29-0.11-0.53-0.29-0.73-0.54c-0.2-0.25-0.34-0.58-0.44-0.99c-0.1-0.41-0.15-0.91-0.15-1.5
			v-7.13h1.56v-0.21h-4.51v0.21h1.56v6.98c0,1.2,0.3,2.09,0.89,2.67c0.59,0.58,1.45,0.87,2.57,0.87c0.18,0,0.36-0.01,0.52-0.02v-0.2
			c-0.09,0-0.18,0.01-0.27,0.01C28.79,20.57,28.46,20.51,28.17,20.41z"/>
		<polygon class="st0" points="55.29,14.91 55.07,14.91 55.07,20.56 53.48,20.56 53.48,20.78 56.88,20.78 56.88,20.56 55.29,20.56 
					"/>
		<polygon class="st0" points="59.83,10.26 61.42,10.26 61.42,14.91 61.63,14.91 61.63,10.26 63.22,10.26 63.22,10.05 59.83,10.05 
					"/>
		<polygon class="st0" points="53.48,10.05 53.48,10.26 54.95,10.26 61.34,20.99 61.63,20.99 61.63,18.68 56.55,10.05 		"/>
		<path class="st0" d="M22.42,11.55c-0.47-0.5-1-0.9-1.6-1.18c-0.34-0.17-0.69-0.28-1.05-0.35v0.21c0.35,0.07,0.65,0.2,0.91,0.37
			c0.43,0.3,0.77,0.71,1.02,1.21c0.24,0.51,0.41,1.08,0.49,1.73c0.09,0.65,0.13,1.32,0.13,2.01c0,0.9-0.06,1.69-0.17,2.37
			c-0.02,0.11-0.04,0.21-0.06,0.32c-0.02,0.07-0.03,0.14-0.05,0.21c-0.11,0.44-0.27,0.83-0.46,1.16c-0.27,0.45-0.61,0.79-1.04,1.01
			c-0.23,0.12-0.49,0.21-0.77,0.26c-0.24,0.05-0.5,0.07-0.78,0.07c-0.31,0-0.59-0.03-0.85-0.08c-0.26-0.06-0.5-0.14-0.71-0.25
			c-0.42-0.22-0.76-0.56-1.03-1.01c-0.27-0.45-0.46-1.01-0.57-1.69c-0.11-0.67-0.17-1.46-0.17-2.37c0-0.69,0.04-1.36,0.13-2.01
			c0.09-0.65,0.25-1.23,0.49-1.73c0.24-0.51,0.58-0.91,1.02-1.21c0.26-0.18,0.56-0.3,0.91-0.37v-0.2c-0.33,0.07-0.66,0.18-0.98,0.34
			c-0.59,0.29-1.12,0.68-1.6,1.18c-0.47,0.5-0.86,1.09-1.16,1.78c-0.3,0.68-0.45,1.43-0.45,2.23c0,0.72,0.12,1.42,0.37,2.1
			c0.25,0.68,0.59,1.28,1.04,1.79c0.44,0.52,0.97,0.93,1.58,1.24c0.36,0.18,0.73,0.31,1.12,0.38c0,0.01,0,0.01,0,0.02
			c0,0.45,0.11,0.85,0.33,1.21c0.22,0.35,0.51,0.65,0.87,0.89c0.36,0.24,0.79,0.43,1.27,0.56c0.05,0.01,0.11,0.03,0.16,0.04
			c0.01-0.12,0.02-0.24,0.04-0.36c-0.16-0.09-0.3-0.21-0.42-0.35c-0.4-0.44-0.59-1.1-0.59-1.98c0,0,0,0,0-0.01
			c0.41-0.08,0.8-0.21,1.17-0.41c0.61-0.32,1.13-0.74,1.58-1.27c0.24-0.29,0.46-0.59,0.65-0.92c0.04-0.07,0.08-0.14,0.12-0.21
			c0.11-0.21,0.21-0.43,0.29-0.66c0.26-0.67,0.39-1.36,0.39-2.06c0-0.8-0.14-1.55-0.42-2.23C23.26,12.65,22.89,12.06,22.42,11.55z"
			/>
	</g>
	<g>
		<path class="st0" d="M101.04,10.78c-0.34-0.25-0.74-0.44-1.2-0.58c-0.46-0.14-0.97-0.2-1.51-0.2c-0.13,0-0.26,0-0.39,0.01
			c-0.13,0.01-0.26,0.01-0.39,0.01c-0.13,0.01-0.27,0.02-0.4,0.02c-0.13,0.01-0.27,0.01-0.4,0.01h-2.69v0.21h1.59v10.31h-1.59v0.21
			h4.61v-0.21h-1.59v-2.7v-2.28v-0.21v-1.4v-3.72c0.08-0.01,0.19-0.02,0.34-0.03c0.15-0.01,0.31-0.02,0.49-0.02
			c0.46,0,0.85,0.04,1.18,0.12c0.33,0.08,0.6,0.22,0.8,0.43c0.2,0.21,0.36,0.48,0.45,0.82c0.1,0.34,0.14,0.77,0.14,1.28
			c0,0.88-0.2,1.54-0.59,1.98c-0.31,0.34-0.72,0.55-1.22,0.62v0.22c0.34-0.03,0.67-0.09,1-0.17c0.48-0.13,0.9-0.32,1.27-0.56
			c0.36-0.24,0.65-0.54,0.87-0.89c0.22-0.35,0.33-0.75,0.33-1.21c0-0.43-0.09-0.82-0.29-1.18
			C101.64,11.34,101.38,11.04,101.04,10.78z"/>
		<path class="st0" d="M92.47,11.49c-0.46-0.49-0.97-0.87-1.55-1.15c-0.33-0.16-0.67-0.27-1.02-0.34v0.2
			c0.34,0.07,0.63,0.19,0.88,0.36c0.42,0.29,0.75,0.69,0.99,1.18c0.24,0.49,0.4,1.06,0.48,1.69c0.08,0.63,0.12,1.28,0.12,1.96
			c0,0.88-0.06,1.65-0.17,2.3c-0.11,0.66-0.3,1.2-0.56,1.64c-0.26,0.44-0.6,0.77-1.01,0.98c-0.22,0.11-0.47,0.2-0.74,0.25v0.2
			c0.39-0.07,0.77-0.21,1.13-0.4c0.59-0.31,1.1-0.72,1.54-1.23c0.44-0.51,0.78-1.09,1.03-1.74c0.25-0.65,0.38-1.32,0.38-2.01
			c0-0.78-0.14-1.5-0.41-2.17C93.29,12.56,92.93,11.98,92.47,11.49z"/>
		<path class="st0" d="M85.85,11.49c-0.46,0.49-0.84,1.06-1.13,1.73c-0.29,0.66-0.44,1.39-0.44,2.17c0,0.7,0.12,1.38,0.36,2.04
			c0.24,0.66,0.58,1.24,1.01,1.74c0.43,0.5,0.94,0.91,1.54,1.21c0.37,0.19,0.76,0.32,1.16,0.39v-0.21
			c-0.28-0.05-0.52-0.14-0.74-0.25c-0.41-0.21-0.74-0.54-1-0.98c-0.26-0.44-0.45-0.99-0.56-1.64c-0.11-0.65-0.17-1.42-0.17-2.3
			c0-0.67,0.04-1.33,0.13-1.96c0.08-0.63,0.24-1.19,0.48-1.69c0.24-0.49,0.57-0.89,0.99-1.18c0.25-0.17,0.54-0.29,0.88-0.36v-0.2
			c-0.32,0.07-0.64,0.18-0.95,0.33C86.83,10.62,86.31,11,85.85,11.49z"/>
		<path class="st0" d="M71.48,10.69c0.22,0.26,0.4,0.55,0.54,0.89c0.14,0.34,0.24,0.69,0.29,1.05h0.17V9.9h-0.2
			c-0.08,0.14-0.14,0.23-0.18,0.26c-0.04,0.04-0.13,0.05-0.25,0.05c-0.13,0-0.26-0.03-0.39-0.09c-0.13-0.06-0.27-0.13-0.44-0.2
			c-0.12-0.06-0.26-0.11-0.41-0.16v0.27c0.03,0.01,0.05,0.02,0.08,0.04C70.99,10.23,71.26,10.43,71.48,10.69z"/>
		<path class="st0" d="M67.95,20.23c-0.22-0.13-0.43-0.32-0.63-0.56c-0.2-0.24-0.38-0.55-0.55-0.92c-0.17-0.37-0.3-0.83-0.41-1.37
			h-0.16v3.24h0.21c0.04-0.1,0.08-0.18,0.14-0.24c0.05-0.06,0.15-0.09,0.29-0.09c0.16,0,0.35,0.04,0.57,0.12
			c0.22,0.08,0.42,0.15,0.62,0.21c0.16,0.05,0.31,0.09,0.44,0.11c0.08,0.01,0.15,0.03,0.23,0.04v-0.23
			c-0.03-0.01-0.06-0.01-0.09-0.02C68.4,20.46,68.17,20.36,67.95,20.23z"/>
		<path class="st0" d="M73.2,16.03c-0.19-0.33-0.41-0.6-0.67-0.8c-0.26-0.2-0.53-0.35-0.81-0.45c-0.28-0.1-0.51-0.18-0.69-0.24
			l-1.73-0.57c-0.25-0.08-0.49-0.17-0.74-0.28c-0.24-0.11-0.46-0.24-0.66-0.39c-0.2-0.16-0.36-0.35-0.48-0.57
			c-0.12-0.23-0.19-0.5-0.19-0.82c0-0.4,0.08-0.73,0.24-0.99c0.16-0.26,0.36-0.47,0.59-0.63c0.09-0.06,0.18-0.11,0.27-0.16V9.87
			c0,0,0,0-0.01,0c-0.39,0.16-0.72,0.38-0.99,0.66c-0.28,0.28-0.49,0.62-0.64,1c-0.15,0.39-0.23,0.81-0.23,1.26
			c0,0.69,0.2,1.25,0.59,1.66c0.4,0.41,0.98,0.74,1.75,0.99l1.65,0.53c0.2,0.06,0.41,0.15,0.64,0.26c0.22,0.11,0.43,0.25,0.62,0.43
			c0.19,0.18,0.35,0.39,0.47,0.64c0.12,0.25,0.19,0.55,0.19,0.9c0,0.24-0.04,0.5-0.11,0.79c-0.08,0.29-0.21,0.55-0.4,0.8
			c-0.19,0.25-0.45,0.45-0.77,0.61c-0.04,0.02-0.08,0.03-0.11,0.05v0.25c0.13-0.04,0.26-0.09,0.39-0.14
			c0.45-0.2,0.83-0.46,1.14-0.78c0.32-0.33,0.56-0.7,0.72-1.13c0.17-0.43,0.25-0.88,0.25-1.35C73.48,16.78,73.39,16.36,73.2,16.03z"
			/>
		<polygon class="st0" points="82.7,10.26 84.29,10.26 84.29,10.05 79.68,10.05 79.68,10.26 81.27,10.26 81.27,13.04 81.27,15.19 
			81.27,15.4 81.27,18.21 81.27,20.56 79.68,20.56 79.68,20.78 84.29,20.78 84.29,20.56 82.7,20.56 		"/>
		<polygon class="st0" points="76.5,15.39 79.68,15.39 79.68,15.18 76.5,15.18 76.5,10.26 78.09,10.26 78.09,10.05 73.48,10.05 
			73.48,10.26 75.07,10.26 75.07,13.04 75.07,15.19 75.07,15.4 75.07,18.21 75.07,20.56 73.48,20.56 73.48,20.78 78.09,20.78 
			78.09,20.56 76.5,20.56 		"/>
	</g>
	<g>
		<path class="st0" d="M105.73,11.52c-0.07,0.15-0.16,0.29-0.27,0.4c-0.11,0.11-0.25,0.2-0.4,0.27c-0.15,0.07-0.32,0.1-0.49,0.1
			c-0.17,0-0.34-0.03-0.49-0.1c-0.15-0.07-0.29-0.16-0.4-0.27c-0.11-0.11-0.2-0.25-0.27-0.4c-0.07-0.15-0.1-0.32-0.1-0.49
			c0-0.17,0.03-0.34,0.1-0.49c0.07-0.15,0.16-0.29,0.27-0.4c0.11-0.11,0.25-0.2,0.4-0.27c0.15-0.07,0.32-0.1,0.49-0.1
			c0.17,0,0.34,0.03,0.49,0.1c0.15,0.07,0.29,0.16,0.4,0.27c0.11,0.12,0.2,0.25,0.27,0.4c0.07,0.15,0.1,0.32,0.1,0.49
			C105.83,11.2,105.8,11.36,105.73,11.52z M103.55,11.46c0.06,0.14,0.14,0.25,0.24,0.35c0.1,0.1,0.22,0.18,0.35,0.24
			c0.13,0.06,0.28,0.09,0.44,0.09c0.15,0,0.29-0.03,0.43-0.09c0.14-0.06,0.25-0.14,0.35-0.24c0.1-0.1,0.18-0.22,0.24-0.35
			c0.06-0.13,0.09-0.28,0.09-0.44c0-0.15-0.03-0.3-0.09-0.44c-0.06-0.13-0.14-0.25-0.24-0.35c-0.1-0.1-0.22-0.18-0.35-0.24
			c-0.14-0.06-0.28-0.09-0.43-0.09c-0.16,0-0.3,0.03-0.44,0.09c-0.13,0.06-0.25,0.14-0.35,0.24c-0.1,0.1-0.18,0.22-0.24,0.35
			c-0.06,0.14-0.09,0.28-0.09,0.44C103.46,11.18,103.49,11.33,103.55,11.46z M105.17,11.73c0.04,0,0.07-0.01,0.1-0.03h0.01h0.01
			c0,0.01,0,0.01-0.01,0.01c-0.01,0.01-0.04,0.03-0.09,0.04c-0.05,0.02-0.09,0.02-0.14,0.02c-0.07,0-0.12-0.02-0.14-0.05
			c-0.04-0.05-0.06-0.11-0.07-0.18c0-0.08-0.01-0.15-0.02-0.23c-0.01-0.13-0.05-0.21-0.1-0.25c-0.05-0.04-0.1-0.06-0.15-0.06h-0.17
			v0.69h0.19v0.07h-0.59V11.7h0.19v-1.34h-0.19v-0.07h0.62c0.13,0,0.24,0.03,0.33,0.09c0.09,0.06,0.13,0.15,0.13,0.27
			c0,0.19-0.12,0.31-0.36,0.35c0.09,0.02,0.17,0.06,0.23,0.1c0.06,0.04,0.1,0.12,0.12,0.24c0.01,0.05,0.01,0.12,0.01,0.18
			c0,0.07,0,0.12,0.01,0.14C105.09,11.71,105.12,11.73,105.17,11.73z M104.6,10.94c0.08,0,0.15-0.02,0.19-0.05
			c0.04-0.04,0.07-0.1,0.07-0.19v-0.08c0-0.17-0.08-0.25-0.25-0.25h-0.21v0.58H104.6z"/>
	</g>
</g>
</svg>
