<?xml version="1.0" encoding="utf-8"?>
<!-- Generator: Adobe Illustrator 25.3.1, SVG Export Plug-In . SVG Version: 6.00 Build 0)  -->
<svg version="1.1" id="圖層_1" xmlns="http://www.w3.org/2000/svg" xmlns:xlink="http://www.w3.org/1999/xlink" x="0px" y="0px"
	 viewBox="0 0 119 31" style="enable-background:new 0 0 119 31;" xml:space="preserve">
<style type="text/css">
	.st0{fill:#FFFFFF;}
</style>
<g>
	<g>
		<path class="st0" d="M50.1,10.4c0.3,0.1,0.5,0.2,0.7,0.5s0.4,0.5,0.5,0.8c0.1,0.3,0.3,0.6,0.4,1h0.2V10h-3.6v0.2h0.8
			C49.5,10.3,49.8,10.3,50.1,10.4z"/>
		<path class="st0" d="M49.2,15.8c0.1,0.2,0.2,0.4,0.3,0.7c0.1,0.3,0.1,0.5,0.2,0.8h0.2v-4.7h-0.2c-0.1,0.4-0.2,0.8-0.3,1.1
			s-0.2,0.5-0.4,0.7s-0.3,0.3-0.6,0.3s-0.5,0.1-0.8,0.1h-0.9V10h-3v0.2h1.6v10.3h-1.6v0.2h3v-5.6h1.2c0.3,0,0.6,0.1,0.8,0.2
			C49,15.4,49.1,15.6,49.2,15.8z"/>
		<path class="st0" d="M52.1,18.3c-0.1,0.4-0.3,0.7-0.5,1s-0.5,0.6-0.8,0.8c-0.3,0.2-0.8,0.4-1.3,0.4h-1.1v0.2h4.1v-3.3h-0.2
			C52.3,17.7,52.2,18,52.1,18.3z"/>
		<path class="st0" d="M40.3,10.4c0.3,0.1,0.5,0.2,0.7,0.5s0.4,0.5,0.5,0.8c0.1,0.3,0.3,0.6,0.4,1h0.2V10h-3.6v0.2h0.8
			C39.7,10.3,40.1,10.3,40.3,10.4z"/>
		<path class="st0" d="M39.5,15.8c0.1,0.2,0.2,0.4,0.3,0.7c0.1,0.3,0.1,0.5,0.2,0.8h0.2v-4.7H40c-0.1,0.4-0.2,0.8-0.3,1.1
			s-0.2,0.5-0.4,0.7s-0.3,0.3-0.6,0.3c-0.2,0.1-0.5,0.1-0.8,0.1H37V10h-3h-3.3v0.2h1.6v4.6h0.2v-4.6H34l0,0h1.6v10.3H34v0.2h3v-5.6
			h1.2c0.3,0,0.6,0.1,0.8,0.2C39.2,15.4,39.3,15.6,39.5,15.8z"/>
		<path class="st0" d="M42.3,18.3c-0.1,0.4-0.3,0.7-0.5,1S41.3,20,41,20.2c-0.3,0.2-0.8,0.4-1.3,0.4h-1.1v0.2h4.1v-3.3h-0.2
			C42.5,17.7,42.4,18,42.3,18.3z"/>
		<path class="st0" d="M28.2,20.4c-0.3-0.1-0.5-0.3-0.7-0.5c-0.2-0.2-0.3-0.6-0.4-1s-0.1-0.9-0.1-1.5v-7.1h1.6V10h-4.5v0.2h1.6v7
			c0,1.2,0.3,2.1,0.9,2.7s1.5,0.9,2.6,0.9c0.2,0,0.4,0,0.5,0v-0.2c-0.1,0-0.2,0-0.3,0C28.8,20.6,28.5,20.5,28.2,20.4z"/>
		<polygon class="st0" points="55.3,14.9 55.1,14.9 55.1,20.6 53.5,20.6 53.5,20.8 56.9,20.8 56.9,20.6 55.3,20.6 		"/>
		<polygon class="st0" points="59.8,10.3 61.4,10.3 61.4,14.9 61.6,14.9 61.6,10.3 63.2,10.3 63.2,10 59.8,10 		"/>
		<polygon class="st0" points="53.5,10 53.5,10.3 55,10.3 61.3,21 61.6,21 61.6,18.7 56.5,10 		"/>
		<path class="st0" d="M22.4,11.5c-0.5-0.5-1-0.9-1.6-1.2c-0.3-0.2-0.7-0.3-1-0.4v0.2c0.4,0.1,0.6,0.2,0.9,0.4
			c0.4,0.3,0.8,0.7,1,1.2c0.2,0.5,0.4,1.1,0.5,1.7c0.1,0.6,0.1,1.3,0.1,2c0,0.9-0.1,1.7-0.2,2.4c0,0.1,0,0.2-0.1,0.3
			c0,0.1,0,0.1,0,0.2c-0.1,0.4-0.3,0.8-0.5,1.2c-0.3,0.5-0.6,0.8-1,1c-0.2,0.1-0.5,0.2-0.8,0.3c-0.2,0-0.5,0.1-0.8,0.1
			c-0.3,0-0.6,0-0.9-0.1c-0.3-0.1-0.5-0.1-0.7-0.2c-0.4-0.2-0.8-0.6-1-1s-0.5-1-0.6-1.7c-0.1-0.7-0.2-1.5-0.2-2.4c0-0.7,0-1.4,0.1-2
			c0.1-0.6,0.3-1.2,0.5-1.7c0.2-0.5,0.6-0.9,1-1.2c0.3-0.2,0.6-0.3,0.9-0.4V10c-0.3,0.1-0.7,0.2-1,0.3c-0.6,0.3-1.1,0.7-1.6,1.2
			c-0.5,0.5-0.9,1.1-1.2,1.8C14.2,14,14,14.8,14,15.6c0,0.7,0.1,1.4,0.4,2.1s0.6,1.3,1,1.8c0.4,0.5,1,0.9,1.6,1.2
			c0.4,0.2,0.7,0.3,1.1,0.4c0,0,0,0,0,0c0,0.5,0.1,0.9,0.3,1.2c0.2,0.4,0.5,0.6,0.9,0.9s0.8,0.4,1.3,0.6c0,0,0.1,0,0.2,0
			c0-0.1,0-0.2,0-0.4c-0.2-0.1-0.3-0.2-0.4-0.4c-0.4-0.4-0.6-1.1-0.6-2c0,0,0,0,0,0c0.4-0.1,0.8-0.2,1.2-0.4
			c0.6-0.3,1.1-0.7,1.6-1.3c0.2-0.3,0.5-0.6,0.6-0.9c0-0.1,0.1-0.1,0.1-0.2c0.1-0.2,0.2-0.4,0.3-0.7c0.3-0.7,0.4-1.4,0.4-2.1
			c0-0.8-0.1-1.6-0.4-2.2C23.3,12.6,22.9,12.1,22.4,11.5z"/>
	</g>
	<g>
		<path class="st0" d="M101,10.8c-0.3-0.2-0.7-0.4-1.2-0.6s-1-0.2-1.5-0.2c-0.1,0-0.3,0-0.4,0s-0.3,0-0.4,0c-0.1,0-0.3,0-0.4,0
			c-0.1,0-0.3,0-0.4,0h-2.7v0.2h1.6v10.3h-1.6v0.2h4.6v-0.2h-1.6v-2.7v-2.3v-0.2V14v-3.7c0.1,0,0.2,0,0.3,0c0.2,0,0.3,0,0.5,0
			c0.5,0,0.8,0,1.2,0.1s0.6,0.2,0.8,0.4c0.2,0.2,0.4,0.5,0.4,0.8c0.1,0.3,0.1,0.8,0.1,1.3c0,0.9-0.2,1.5-0.6,2
			c-0.3,0.3-0.7,0.6-1.2,0.6v0.2c0.3,0,0.7-0.1,1-0.2c0.5-0.1,0.9-0.3,1.3-0.6c0.4-0.2,0.7-0.5,0.9-0.9s0.3-0.8,0.3-1.2
			c0-0.4-0.1-0.8-0.3-1.2C101.6,11.3,101.4,11,101,10.8z"/>
		<path class="st0" d="M92.5,11.5c-0.5-0.5-1-0.9-1.6-1.1c-0.3-0.2-0.7-0.3-1-0.3v0.2c0.3,0.1,0.6,0.2,0.9,0.4
			c0.4,0.3,0.8,0.7,1,1.2c0.2,0.5,0.4,1.1,0.5,1.7c0.1,0.6,0.1,1.3,0.1,2c0,0.9-0.1,1.6-0.2,2.3c-0.1,0.7-0.3,1.2-0.6,1.6
			c-0.3,0.4-0.6,0.8-1,1c-0.2,0.1-0.5,0.2-0.7,0.2v0.2c0.4-0.1,0.8-0.2,1.1-0.4c0.6-0.3,1.1-0.7,1.5-1.2s0.8-1.1,1-1.7
			s0.4-1.3,0.4-2c0-0.8-0.1-1.5-0.4-2.2C93.3,12.6,92.9,12,92.5,11.5z"/>
		<path class="st0" d="M85.8,11.5c-0.5,0.5-0.8,1.1-1.1,1.7c-0.3,0.7-0.4,1.4-0.4,2.2c0,0.7,0.1,1.4,0.4,2c0.2,0.7,0.6,1.2,1,1.7
			s0.9,0.9,1.5,1.2c0.4,0.2,0.8,0.3,1.2,0.4v-0.2c-0.3,0-0.5-0.1-0.7-0.2c-0.4-0.2-0.7-0.5-1-1c-0.3-0.4-0.4-1-0.6-1.6
			s-0.2-1.4-0.2-2.3c0-0.7,0-1.3,0.1-2c0.1-0.6,0.2-1.2,0.5-1.7c0.2-0.5,0.6-0.9,1-1.2c0.2-0.2,0.5-0.3,0.9-0.4V10
			c-0.3,0.1-0.6,0.2-0.9,0.3C86.8,10.6,86.3,11,85.8,11.5z"/>
		<path class="st0" d="M71.5,10.7c0.2,0.3,0.4,0.6,0.5,0.9s0.2,0.7,0.3,1.1h0.2V9.9h-0.2c-0.1,0.1-0.1,0.2-0.2,0.3
			c0,0-0.1,0.1-0.2,0.1c-0.1,0-0.3,0-0.4-0.1S71.2,10,71,9.9c-0.1-0.1-0.3-0.1-0.4-0.2V10c0,0,0.1,0,0.1,0
			C71,10.2,71.3,10.4,71.5,10.7z"/>
		<path class="st0" d="M67.9,20.2c-0.2-0.1-0.4-0.3-0.6-0.6s-0.4-0.5-0.6-0.9c-0.2-0.4-0.3-0.8-0.4-1.4h-0.2v3.2h0.2
			c0-0.1,0.1-0.2,0.1-0.2c0.1-0.1,0.2-0.1,0.3-0.1c0.2,0,0.3,0,0.6,0.1s0.4,0.1,0.6,0.2c0.2,0,0.3,0.1,0.4,0.1c0.1,0,0.2,0,0.2,0
			v-0.2c0,0-0.1,0-0.1,0C68.4,20.5,68.2,20.4,67.9,20.2z"/>
		<path class="st0" d="M73.2,16c-0.2-0.3-0.4-0.6-0.7-0.8c-0.3-0.2-0.5-0.4-0.8-0.4c-0.3-0.1-0.5-0.2-0.7-0.2L69.3,14
			c-0.2-0.1-0.5-0.2-0.7-0.3c-0.2-0.1-0.5-0.2-0.7-0.4c-0.2-0.2-0.4-0.4-0.5-0.6c-0.1-0.2-0.2-0.5-0.2-0.8c0-0.4,0.1-0.7,0.2-1
			c0.2-0.3,0.4-0.5,0.6-0.6c0.1-0.1,0.2-0.1,0.3-0.2V9.9c0,0,0,0,0,0c-0.4,0.2-0.7,0.4-1,0.7c-0.3,0.3-0.5,0.6-0.6,1
			c-0.2,0.4-0.2,0.8-0.2,1.3c0,0.7,0.2,1.2,0.6,1.7c0.4,0.4,1,0.7,1.8,1l1.7,0.5c0.2,0.1,0.4,0.1,0.6,0.3c0.2,0.1,0.4,0.2,0.6,0.4
			s0.3,0.4,0.5,0.6s0.2,0.5,0.2,0.9c0,0.2,0,0.5-0.1,0.8c-0.1,0.3-0.2,0.5-0.4,0.8s-0.4,0.5-0.8,0.6c0,0-0.1,0-0.1,0v0.2
			c0.1,0,0.3-0.1,0.4-0.1c0.4-0.2,0.8-0.5,1.1-0.8c0.3-0.3,0.6-0.7,0.7-1.1c0.2-0.4,0.2-0.9,0.2-1.4C73.5,16.8,73.4,16.4,73.2,16z"
			/>
		<polygon class="st0" points="82.7,10.3 84.3,10.3 84.3,10 79.7,10 79.7,10.3 81.3,10.3 81.3,13 81.3,15.2 81.3,15.4 81.3,18.2 
			81.3,20.6 79.7,20.6 79.7,20.8 84.3,20.8 84.3,20.6 82.7,20.6 		"/>
		<polygon class="st0" points="76.5,15.4 79.7,15.4 79.7,15.2 76.5,15.2 76.5,10.3 78.1,10.3 78.1,10 73.5,10 73.5,10.3 75.1,10.3 
			75.1,13 75.1,15.2 75.1,15.4 75.1,18.2 75.1,20.6 73.5,20.6 73.5,20.8 78.1,20.8 78.1,20.6 76.5,20.6 		"/>
	</g>
	<g>
		<path class="st0" d="M105.7,11.5c-0.1,0.1-0.2,0.3-0.3,0.4c-0.1,0.1-0.2,0.2-0.4,0.3c-0.2,0.1-0.3,0.1-0.5,0.1s-0.3,0-0.5-0.1
			c-0.2-0.1-0.3-0.2-0.4-0.3c-0.1-0.1-0.2-0.2-0.3-0.4s-0.1-0.3-0.1-0.5s0-0.3,0.1-0.5s0.2-0.3,0.3-0.4c0.1-0.1,0.2-0.2,0.4-0.3
			c0.2-0.1,0.3-0.1,0.5-0.1s0.3,0,0.5,0.1c0.2,0.1,0.3,0.2,0.4,0.3c0.1,0.1,0.2,0.2,0.3,0.4s0.1,0.3,0.1,0.5
			C105.8,11.2,105.8,11.4,105.7,11.5z M103.6,11.5c0.1,0.1,0.1,0.2,0.2,0.4s0.2,0.2,0.3,0.2c0.1,0.1,0.3,0.1,0.4,0.1
			c0.2,0,0.3,0,0.4-0.1s0.2-0.1,0.3-0.2c0.1-0.1,0.2-0.2,0.2-0.4s0.1-0.3,0.1-0.4c0-0.1,0-0.3-0.1-0.4c-0.1-0.1-0.1-0.2-0.2-0.4
			S105.1,10,105,10c-0.1-0.1-0.3-0.1-0.4-0.1c-0.2,0-0.3,0-0.4,0.1c-0.1,0.1-0.2,0.1-0.3,0.2c-0.1,0.1-0.2,0.2-0.2,0.4
			c-0.1,0.1-0.1,0.3-0.1,0.4C103.5,11.2,103.5,11.3,103.6,11.5z M105.2,11.7C105.2,11.7,105.2,11.7,105.2,11.7l0.1,0h0c0,0,0,0,0,0
			C105.3,11.7,105.2,11.7,105.2,11.7c0,0-0.1,0-0.1,0c-0.1,0-0.1,0-0.1-0.1c0-0.1-0.1-0.1-0.1-0.2c0-0.1,0-0.1,0-0.2
			c0-0.1-0.1-0.2-0.1-0.2c-0.1,0-0.1-0.1-0.2-0.1h-0.2v0.7h0.2v0.1H104v-0.1h0.2v-1.3H104v-0.1h0.6c0.1,0,0.2,0,0.3,0.1
			c0.1,0.1,0.1,0.1,0.1,0.3c0,0.2-0.1,0.3-0.4,0.4c0.1,0,0.2,0.1,0.2,0.1c0.1,0,0.1,0.1,0.1,0.2c0,0.1,0,0.1,0,0.2
			C105.1,11.6,105.1,11.6,105.2,11.7C105.1,11.7,105.1,11.7,105.2,11.7z M104.6,10.9c0.1,0,0.2,0,0.2-0.1c0,0,0.1-0.1,0.1-0.2v-0.1
			c0-0.2-0.1-0.2-0.2-0.2h-0.2v0.6L104.6,10.9L104.6,10.9z"/>
	</g>
</g>
</svg>
