<?xml version="1.0" encoding="utf-8"?>
<!-- Generator: Adobe Illustrator 22.1.0, SVG Export Plug-In . SVG Version: 6.00 Build 0)  -->
<svg version="1.1" id="圖層_1" xmlns="http://www.w3.org/2000/svg" xmlns:xlink="http://www.w3.org/1999/xlink" x="0px" y="0px"
	 viewBox="0 0 20 20" style="enable-background:new 0 0 20 20;" xml:space="preserve">
<style type="text/css">
	.st0{fill:#FFFFFF;}
</style>
<path class="st0" d="M17.5,16.5l-4.1-4.1c0.9-1.1,1.3-2.4,1.4-3.8c0-3.4-2.8-6.1-6.1-6.1S2.5,5.2,2.5,8.6s2.8,6.1,6.2,6.1
	c1.4,0,2.8-0.5,3.8-1.3l4.1,4.1L17.5,16.5z M8.6,13.6c-2.7,0-4.9-2.2-4.9-4.9c0-2.7,2.2-4.9,4.9-4.9s4.9,2.2,4.9,4.9
	C13.6,11.4,11.4,13.6,8.6,13.6z"/>
</svg>
