<?xml version="1.0" encoding="utf-8"?>
<!-- Generator: Adobe Illustrator 25.3.1, SVG Export Plug-In . SVG Version: 6.00 Build 0)  -->
<svg version="1.1" id="圖層_1" xmlns="http://www.w3.org/2000/svg" xmlns:xlink="http://www.w3.org/1999/xlink" x="0px" y="0px"
	 viewBox="0 0 25 25" style="enable-background:new 0 0 25 25;" xml:space="preserve">
<style type="text/css">
	.st0{fill:#333333;}
</style>
<path class="st0" d="M19,2.5H6C4.1,2.5,2.5,4.1,2.5,6V19c0,1.9,1.6,3.5,3.5,3.5H19c1.9,0,3.5-1.6,3.5-3.5V6
	C22.5,4.1,20.9,2.5,19,2.5z M17.1,13.1h-4v4c0,0.3-0.3,0.6-0.6,0.6c-0.3,0-0.6-0.3-0.6-0.6v-4h-4c-0.3,0-0.6-0.3-0.6-0.6
	c0-0.3,0.3-0.6,0.6-0.6h4v-4c0-0.3,0.3-0.6,0.6-0.6c0.3,0,0.6,0.3,0.6,0.6v4h4c0.3,0,0.6,0.3,0.6,0.6C17.7,12.8,17.4,13.1,17.1,13.1
	z"/>
</svg>
