<?xml version="1.0" encoding="utf-8"?>
<!-- Generator: Adobe Illustrator 25.3.1, SVG Export Plug-In . SVG Version: 6.00 Build 0)  -->
<svg version="1.1" id="圖層_1" xmlns="http://www.w3.org/2000/svg" xmlns:xlink="http://www.w3.org/1999/xlink" x="0px" y="0px"
	 viewBox="0 0 25 25" style="enable-background:new 0 0 25 25;" xml:space="preserve">
<style type="text/css">
	.st0{fill:#333333;}
</style>
<path class="st0" d="M21.2,23.1h-5.8c-0.7,0-1.3-0.6-1.3-1.3v-4.5c0-1.2-0.8-2.2-1.7-2.2s-1.7,1-1.7,2.2v4.5c0,0.7-0.6,1.3-1.3,1.3
	H3.8c-0.7,0-1.3-0.6-1.3-1.3v-10c0-0.4,0.1-0.7,0.4-0.9l8.7-8.5c0.5-0.5,1.3-0.5,1.9,0l8.7,8.5c0.2,0.2,0.4,0.6,0.4,0.9v10
	C22.5,22.5,21.9,23.1,21.2,23.1z M12.3,13.9c1.6,0,2.9,1.5,2.9,3.4v4.5c0,0.1,0.1,0.1,0.1,0.1h5.8c0.1,0,0.1-0.1,0.1-0.1v-10
	c0,0,0-0.1,0-0.1l0,0l-8.7-8.5c0,0-0.1,0-0.2,0l-8.7,8.5c0,0,0,0.1,0,0.1v10c0,0.1,0.1,0.1,0.1,0.1h5.5c0,0,0.1,0,0.1-0.1v-4.5
	C9.4,15.4,10.7,13.9,12.3,13.9z"/>
</svg>
