<?xml version="1.0" encoding="utf-8"?>
<!-- Generator: Adobe Illustrator 25.3.1, SVG Export Plug-In . SVG Version: 6.00 Build 0)  -->
<svg version="1.1" id="圖層_1" xmlns="http://www.w3.org/2000/svg" xmlns:xlink="http://www.w3.org/1999/xlink" x="0px" y="0px"
	 viewBox="0 0 25 25" style="enable-background:new 0 0 25 25;" xml:space="preserve">
<style type="text/css">
	.st0{fill:#333333;}
	.st1{fill:#333333;stroke:#333333;stroke-miterlimit:10;}
</style>
<g>
	<g>
		<g>
			<g>
				<g>
					<g>
						<path class="st0" d="M20.3,22.1C20.3,22.1,20.3,22.1,20.3,22.1c-0.1,0-0.1,0-0.2,0l0,0l-0.2,0c-1.2,0-2.4-0.2-3.4-0.4
							c-3.1-0.7-6-2.3-8.4-4.7l0,0C5.6,14.5,4,11.6,3.3,8.5C3.1,7.5,2.9,6.3,2.9,5c0,0,0,0,0-0.1c0,0,0-0.1,0-0.1
							c0-0.4,0-1.2,0.7-1.7c0.5-0.4,1.1-0.3,1.5-0.3l0.1,0c0.1,0,0.1,0,0.2,0c0.2,0,0.4,0,0.6,0c0.2,0,0.4,0,0.6,0h0.3
							c0.4,0,0.8,0,1.2,0c0.9,0,1.6,0.6,1.7,1.5L10.4,8c0.1,0.8-0.2,1.6-0.8,2.1l-0.6,0.5c-0.4,0.3-0.5,0.5-0.5,0.7
							c0,0.2,0.1,0.5,0.4,0.9c0.6,0.8,1.2,1.5,1.8,2.1c0.6,0.6,1.3,1.2,2.1,1.8c0.4,0.3,0.7,0.5,0.9,0.4c0.2,0,0.4-0.2,0.7-0.5
							l0.5-0.6c0.5-0.7,1.3-1,2.1-0.8l3.7,0.6c0.8,0.1,1.5,0.9,1.5,1.7c0,0.3,0,0.7,0,1l0,0.2c0,0.5,0,1,0,1.5c0,0.1,0,0.1,0,0.2
							l0,0.1c0,0.4,0.1,1-0.3,1.5l0,0C21.4,22.1,20.8,22.1,20.3,22.1z M3.5,4.8L3.5,4.8"/>
					</g>
				</g>
			</g>
		</g>
	</g>
</g>
</svg>
