<?xml version="1.0" encoding="utf-8"?>
<!-- Generator: Adobe Illustrator 25.3.1, SVG Export Plug-In . SVG Version: 6.00 Build 0)  -->
<svg version="1.1" id="圖層_1" xmlns="http://www.w3.org/2000/svg" xmlns:xlink="http://www.w3.org/1999/xlink" x="0px" y="0px"
	 viewBox="0 0 25 25" style="enable-background:new 0 0 25 25;" xml:space="preserve">
<style type="text/css">
	.st0{fill:#333333;}
</style>
<g>
	<path class="st0" d="M12.5,2.5C9,2.5,6.2,5.4,6.2,8.8s2.8,6.3,6.3,6.3c3.5,0,6.3-2.8,6.3-6.3S16,2.5,12.5,2.5z M12.5,13.9
		c-2.8,0-5.1-2.3-5.1-5.1c0-2.8,2.3-5.1,5.1-5.1c2.8,0,5.1,2.3,5.1,5.1C17.6,11.6,15.3,13.9,12.5,13.9z"/>
	<path class="st0" d="M12.5,18.2c4,0,7.6,1.7,9.8,4.2c0.2-0.1,0.3-0.3,0.4-0.4c-2.1-2.9-5.9-4.8-10.2-4.8c-4.3,0-8.1,1.9-10.2,4.8
		c0.1,0.2,0.3,0.3,0.4,0.4C4.9,19.9,8.5,18.2,12.5,18.2z"/>
</g>
</svg>
