<?xml version="1.0" encoding="utf-8"?>
<!-- Generator: Adobe Illustrator 25.3.1, SVG Export Plug-In . SVG Version: 6.00 Build 0)  -->
<svg version="1.1" id="圖層_1" xmlns="http://www.w3.org/2000/svg" xmlns:xlink="http://www.w3.org/1999/xlink" x="0px" y="0px"
	 viewBox="0 0 25 25" style="enable-background:new 0 0 25 25;" xml:space="preserve">
<style type="text/css">
	.st0{fill:#333333;}
</style>
<path class="st0" d="M22.3,21.6l-4-4c3.2-3.5,3.1-9-0.3-12.4c-3.5-3.5-9.2-3.5-12.7,0c-3.5,3.5-3.5,9.2,0,12.7
	c3.4,3.4,8.8,3.5,12.4,0.3l4,4c0.2,0.2,0.5,0.2,0.7,0S22.5,21.8,22.3,21.6z M17.3,16.7l-0.3,0.3l-0.3,0.3c-1.4,1.3-3.3,2-5.2,2
	c-2.1,0-4-0.8-5.5-2.3c-3-3-3-8,0-11c1.5-1.5,3.4-2.3,5.5-2.3c2.1,0,4,0.8,5.5,2.3C20,9,20.1,13.7,17.3,16.7z"/>
</svg>
