<?xml version="1.0" encoding="utf-8"?>
<!-- Generator: Adobe Illustrator 25.3.1, SVG Export Plug-In . SVG Version: 6.00 Build 0)  -->
<svg version="1.1" id="圖層_1" xmlns="http://www.w3.org/2000/svg" xmlns:xlink="http://www.w3.org/1999/xlink" x="0px" y="0px"
	 viewBox="0 0 25 25" style="enable-background:new 0 0 25 25;" xml:space="preserve">
<style type="text/css">
	.st0{fill:#333333;}
</style>
<path class="st0" d="M22.3,16.4l-0.3-7.2l0,0c-0.1-1.9-1.7-3.4-3.5-3.4h-1.7c-0.3-2-2-3.6-4.1-3.6c-2.1,0-3.9,1.6-4.1,3.6H6.6
	c-1.9,0-3.5,1.5-3.5,3.4l-0.3,7.2c-0.1,1.7,0.5,3.2,1.7,4.5c1.1,1.2,2.7,1.9,4.4,1.9h7.5c1.7,0,3.2-0.7,4.4-1.9
	C21.8,19.7,22.4,18.1,22.3,16.4z M12.5,3.2c1.6,0,2.9,1.2,3.2,2.7H9.3C9.6,4.3,10.9,3.2,12.5,3.2z M12.5,13.4
	c-2.3,0-4.1-1.8-4.2-4.1l0.9,0c0,1.7,1.5,3.2,3.2,3.2c1.7,0,3.2-1.4,3.2-3.2l0.9,0C16.6,11.6,14.8,13.4,12.5,13.4z"/>
</svg>
